<svg id="Layer_1" data-name="Layer 1" xmlns="http://www.w3.org/2000/svg" viewBox="0 0 669.09 206.48"><defs><style>.cls-1{fill:#e34234;}</style></defs><title>bento</title><path class="cls-1" d="M247.26,448.92q0,28.59-19.82,48.49T179,517.32q-28.89,0-48.71-19.79t-19.82-48.66V311.22H145v78.24a68.77,68.77,0,0,1,34-8.69q28.64,0,48.46,19.78T247.26,448.92Zm-34.52,0A34,34,0,0,0,179,415.29a33,33,0,0,0-24,9.81,32.17,32.17,0,0,0-10,23.82,34,34,0,0,0,34,33.88,32.4,32.4,0,0,0,23.91-9.93A32.83,32.83,0,0,0,212.74,448.92Z" transform="translate(-110.45 -311.22)"/><path class="cls-1" d="M376.06,400.52a67.73,67.73,0,0,1,6.67,7.75L312,479a32.8,32.8,0,0,0,20.89,3.53,33.44,33.44,0,0,0,18.89-9.68,32.49,32.49,0,0,0,9.77-26.76l34.53,4.88a65.65,65.65,0,0,1-19.89,46.29q-20.43,20.44-48.43,20.46T279.4,497.32q-20.22-20.2-20.1-48.3t20.37-48.34q20.25-20.25,48.23-20.3T376.06,400.52Zm-38.35,16.25q-19.35-6-33.63,8.32-14.47,14.46-8.5,33.81Z" transform="translate(-110.45 -311.22)"/><path class="cls-1" d="M538.05,512.76H503.53V448.23a32.31,32.31,0,0,0-10-23.72,32.68,32.68,0,0,0-23.87-9.94,33.2,33.2,0,0,0-24.13,9.82,32.15,32.15,0,0,0-10,23.84v64.53H401V448.19q0-28.59,19.95-48.36T469.52,380q28.64,0,48.59,19.79t19.94,48.36Z" transform="translate(-110.45 -311.22)"/><path class="cls-1" d="M628.39,517.23q-28.64,0-48.59-19.79T559.86,449V315h34.52v69.56h34v29.4h-34v35a32.36,32.36,0,0,0,10,23.91,33,33,0,0,0,24,9.84Z" transform="translate(-110.45 -311.22)"/><path class="cls-1" d="M779.55,448.92q0,28.59-19.82,48.49t-48.46,19.91q-28.89,0-48.71-19.78t-19.82-48.62q0-28.59,20-48.37t48.58-19.78q28.63,0,48.46,19.78T779.55,448.92Zm-34.52,0a34,34,0,0,0-33.76-33.63,33,33,0,0,0-24,9.81,32.19,32.19,0,0,0-10,23.82,33.89,33.89,0,1,0,67.77,0Z" transform="translate(-110.45 -311.22)"/></svg>