<svg id="Layer_1" data-name="Layer 1" xmlns="http://www.w3.org/2000/svg" viewBox="0 0 202.27 158.36"><defs><style>.cls-1{fill:#e34234;}</style></defs><title>logo</title><path class="cls-1" d="M551.13,457.65q0,28.64-19.79,48.59T483,526.18H348.87V491.66h69.55v-34h29.4v34h35a32.34,32.34,0,0,0,23.91-10,33,33,0,0,0,9.84-24Z" transform="translate(-348.87 -367.82)"/><path class="cls-1" d="M516.61,436.35a33,33,0,0,0-9.84-24,32.34,32.34,0,0,0-23.91-10h-35v34h-29.4v-34H348.87V367.82H483q28.6,0,48.39,19.94t19.79,48.59Z" transform="translate(-348.87 -367.82)"/></svg>